M48
; DRILL file {KiCad 7.0.11-7.0.11~ubuntu22.04.1} date Wed Feb 28 16:56:23 2024
; FORMAT={2:4/ absolute / inch / suppress leading zeros}
; #@! TF.CreationDate,2024-02-28T16:56:23+00:00
; #@! TF.GenerationSoftware,Kicad,Pcbnew,7.0.11-7.0.11~ubuntu22.04.1
; #@! TF.FileFunction,MixedPlating,1,2
FMAT,2
INCH,TZ
; #@! TA.AperFunction,Plated,PTH,ComponentDrill
T1C0.0118
; #@! TA.AperFunction,Plated,PTH,ComponentDrill
T2C0.0512
; #@! TA.AperFunction,Plated,PTH,ComponentDrill
T3C0.1693
%
G90
G05
T1
X23406Y27096
X23406Y25246
X23406Y24695
X23406Y22844
X23406Y22530
X23406Y21506
X23406Y21112
X23406Y20718
X23406Y20325
X23406Y19931
X23406Y19537
X23406Y19144
X23406Y18750
X23406Y14537
X23406Y14144
X23563Y13159
X24508Y13159
X24980Y13159
X25453Y13159
X25925Y13159
X26319Y27096
X26398Y13159
X26713Y27096
X26870Y13159
X27343Y13159
X27776Y27096
X27815Y13159
X28287Y13159
X28760Y13159
X29232Y13159
X29469Y27096
X29705Y13159
X29783Y27096
X30098Y27096
X30177Y13159
X30413Y27096
X30650Y13159
X30728Y27096
X31043Y27096
X31122Y13159
X31358Y27096
X31594Y13159
X31673Y27096
X31988Y27096
X32067Y13159
X32539Y13159
X32933Y27096
X33012Y13159
X33248Y27096
X33484Y13159
X33563Y27096
X33878Y27096
X33957Y13159
X34193Y27096
X34508Y27096
X34823Y27096
X35138Y27096
X35453Y27096
X35768Y27096
X36083Y27096
X36398Y27096
X36555Y21821
X36555Y15719
X36555Y24262
X36555Y23947
X36555Y23632
X36555Y23317
X36555Y23002
X36555Y22687
X36555Y22136
X36555Y21506
X36555Y21191
X36555Y20876
X36555Y20561
X36555Y20246
X36555Y19931
X36555Y19616
X36555Y19301
X36555Y18986
X36555Y18671
X36555Y18356
X36555Y18041
X36555Y17726
X36555Y17411
T2
X13976Y3661
X14961Y5630
X15945Y3661
X16929Y5630
X17913Y3661
X18898Y5630
X19882Y3661
X20866Y5630
X21850Y3661
X22835Y5630
X23819Y3661
X24803Y5630
X25787Y3661
X26772Y5630
X27756Y3661
X28740Y5630
X29724Y3661
X30709Y5630
X31693Y3661
X32677Y5630
X33661Y3661
X34646Y5630
X35630Y3661
X36614Y5630
X37598Y3661
X38583Y5630
X39567Y3661
X40551Y5630
X41535Y3661
X42520Y5630
X43504Y3661
X44488Y5630
X45472Y3661
X46457Y5630
X47441Y3661
T3
X9843Y2717
X51575Y2717
M30
