G04 #@! TF.GenerationSoftware,KiCad,Pcbnew,7.0.11-7.0.11~ubuntu22.04.1*
G04 #@! TF.CreationDate,2024-02-28T16:56:23+00:00*
G04 #@! TF.ProjectId,balefi,62616c65-6669-42e6-9b69-6361645f7063,rev?*
G04 #@! TF.SameCoordinates,Original*
G04 #@! TF.FileFunction,Legend,Top*
G04 #@! TF.FilePolarity,Positive*
%FSLAX46Y46*%
G04 Gerber Fmt 4.6, Leading zero omitted, Abs format (unit mm)*
G04 Created by KiCad (PCBNEW 7.0.11-7.0.11~ubuntu22.04.1) date 2024-02-28 16:56:23*
%MOMM*%
%LPD*%
G01*
G04 APERTURE LIST*
%ADD10C,0.150000*%
%ADD11C,0.050000*%
%ADD12C,0.120000*%
%ADD13C,0.200000*%
G04 APERTURE END LIST*
D10*
X77416666Y12095181D02*
X77416666Y11380896D01*
X77416666Y11380896D02*
X77369047Y11238039D01*
X77369047Y11238039D02*
X77273809Y11142800D01*
X77273809Y11142800D02*
X77130952Y11095181D01*
X77130952Y11095181D02*
X77035714Y11095181D01*
X78416666Y11095181D02*
X77845238Y11095181D01*
X78130952Y11095181D02*
X78130952Y12095181D01*
X78130952Y12095181D02*
X78035714Y11952324D01*
X78035714Y11952324D02*
X77940476Y11857086D01*
X77940476Y11857086D02*
X77845238Y11809467D01*
X64811903Y16090420D02*
X64764284Y16042800D01*
X64764284Y16042800D02*
X64621427Y15995181D01*
X64621427Y15995181D02*
X64526189Y15995181D01*
X64526189Y15995181D02*
X64383332Y16042800D01*
X64383332Y16042800D02*
X64288094Y16138039D01*
X64288094Y16138039D02*
X64240475Y16233277D01*
X64240475Y16233277D02*
X64192856Y16423753D01*
X64192856Y16423753D02*
X64192856Y16566610D01*
X64192856Y16566610D02*
X64240475Y16757086D01*
X64240475Y16757086D02*
X64288094Y16852324D01*
X64288094Y16852324D02*
X64383332Y16947562D01*
X64383332Y16947562D02*
X64526189Y16995181D01*
X64526189Y16995181D02*
X64621427Y16995181D01*
X64621427Y16995181D02*
X64764284Y16947562D01*
X64764284Y16947562D02*
X64811903Y16899943D01*
X65383332Y15995181D02*
X65288094Y16042800D01*
X65288094Y16042800D02*
X65240475Y16090420D01*
X65240475Y16090420D02*
X65192856Y16185658D01*
X65192856Y16185658D02*
X65192856Y16471372D01*
X65192856Y16471372D02*
X65240475Y16566610D01*
X65240475Y16566610D02*
X65288094Y16614229D01*
X65288094Y16614229D02*
X65383332Y16661848D01*
X65383332Y16661848D02*
X65526189Y16661848D01*
X65526189Y16661848D02*
X65621427Y16614229D01*
X65621427Y16614229D02*
X65669046Y16566610D01*
X65669046Y16566610D02*
X65716665Y16471372D01*
X65716665Y16471372D02*
X65716665Y16185658D01*
X65716665Y16185658D02*
X65669046Y16090420D01*
X65669046Y16090420D02*
X65621427Y16042800D01*
X65621427Y16042800D02*
X65526189Y15995181D01*
X65526189Y15995181D02*
X65383332Y15995181D01*
X66145237Y16661848D02*
X66145237Y15995181D01*
X66145237Y16566610D02*
X66192856Y16614229D01*
X66192856Y16614229D02*
X66288094Y16661848D01*
X66288094Y16661848D02*
X66430951Y16661848D01*
X66430951Y16661848D02*
X66526189Y16614229D01*
X66526189Y16614229D02*
X66573808Y16518991D01*
X66573808Y16518991D02*
X66573808Y15995181D01*
X67049999Y16661848D02*
X67049999Y15995181D01*
X67049999Y16566610D02*
X67097618Y16614229D01*
X67097618Y16614229D02*
X67192856Y16661848D01*
X67192856Y16661848D02*
X67335713Y16661848D01*
X67335713Y16661848D02*
X67430951Y16614229D01*
X67430951Y16614229D02*
X67478570Y16518991D01*
X67478570Y16518991D02*
X67478570Y15995181D01*
X68335713Y16042800D02*
X68240475Y15995181D01*
X68240475Y15995181D02*
X68049999Y15995181D01*
X68049999Y15995181D02*
X67954761Y16042800D01*
X67954761Y16042800D02*
X67907142Y16138039D01*
X67907142Y16138039D02*
X67907142Y16518991D01*
X67907142Y16518991D02*
X67954761Y16614229D01*
X67954761Y16614229D02*
X68049999Y16661848D01*
X68049999Y16661848D02*
X68240475Y16661848D01*
X68240475Y16661848D02*
X68335713Y16614229D01*
X68335713Y16614229D02*
X68383332Y16518991D01*
X68383332Y16518991D02*
X68383332Y16423753D01*
X68383332Y16423753D02*
X67907142Y16328515D01*
X69240475Y16042800D02*
X69145237Y15995181D01*
X69145237Y15995181D02*
X68954761Y15995181D01*
X68954761Y15995181D02*
X68859523Y16042800D01*
X68859523Y16042800D02*
X68811904Y16090420D01*
X68811904Y16090420D02*
X68764285Y16185658D01*
X68764285Y16185658D02*
X68764285Y16471372D01*
X68764285Y16471372D02*
X68811904Y16566610D01*
X68811904Y16566610D02*
X68859523Y16614229D01*
X68859523Y16614229D02*
X68954761Y16661848D01*
X68954761Y16661848D02*
X69145237Y16661848D01*
X69145237Y16661848D02*
X69240475Y16614229D01*
X69526190Y16661848D02*
X69907142Y16661848D01*
X69669047Y16995181D02*
X69669047Y16138039D01*
X69669047Y16138039D02*
X69716666Y16042800D01*
X69716666Y16042800D02*
X69811904Y15995181D01*
X69811904Y15995181D02*
X69907142Y15995181D01*
X70383333Y15995181D02*
X70288095Y16042800D01*
X70288095Y16042800D02*
X70240476Y16090420D01*
X70240476Y16090420D02*
X70192857Y16185658D01*
X70192857Y16185658D02*
X70192857Y16471372D01*
X70192857Y16471372D02*
X70240476Y16566610D01*
X70240476Y16566610D02*
X70288095Y16614229D01*
X70288095Y16614229D02*
X70383333Y16661848D01*
X70383333Y16661848D02*
X70526190Y16661848D01*
X70526190Y16661848D02*
X70621428Y16614229D01*
X70621428Y16614229D02*
X70669047Y16566610D01*
X70669047Y16566610D02*
X70716666Y16471372D01*
X70716666Y16471372D02*
X70716666Y16185658D01*
X70716666Y16185658D02*
X70669047Y16090420D01*
X70669047Y16090420D02*
X70621428Y16042800D01*
X70621428Y16042800D02*
X70526190Y15995181D01*
X70526190Y15995181D02*
X70383333Y15995181D01*
X71145238Y15995181D02*
X71145238Y16661848D01*
X71145238Y16471372D02*
X71192857Y16566610D01*
X71192857Y16566610D02*
X71240476Y16614229D01*
X71240476Y16614229D02*
X71335714Y16661848D01*
X71335714Y16661848D02*
X71430952Y16661848D01*
X71716667Y16042800D02*
X71811905Y15995181D01*
X71811905Y15995181D02*
X72002381Y15995181D01*
X72002381Y15995181D02*
X72097619Y16042800D01*
X72097619Y16042800D02*
X72145238Y16138039D01*
X72145238Y16138039D02*
X72145238Y16185658D01*
X72145238Y16185658D02*
X72097619Y16280896D01*
X72097619Y16280896D02*
X72002381Y16328515D01*
X72002381Y16328515D02*
X71859524Y16328515D01*
X71859524Y16328515D02*
X71764286Y16376134D01*
X71764286Y16376134D02*
X71716667Y16471372D01*
X71716667Y16471372D02*
X71716667Y16518991D01*
X71716667Y16518991D02*
X71764286Y16614229D01*
X71764286Y16614229D02*
X71859524Y16661848D01*
X71859524Y16661848D02*
X72002381Y16661848D01*
X72002381Y16661848D02*
X72097619Y16614229D01*
X72335715Y15899943D02*
X73097619Y15899943D01*
X73335715Y16518991D02*
X73669048Y16518991D01*
X73811905Y15995181D02*
X73335715Y15995181D01*
X73335715Y15995181D02*
X73335715Y16995181D01*
X73335715Y16995181D02*
X73811905Y16995181D01*
X74573810Y16518991D02*
X74240477Y16518991D01*
X74240477Y15995181D02*
X74240477Y16995181D01*
X74240477Y16995181D02*
X74716667Y16995181D01*
X75097620Y15995181D02*
X75097620Y16995181D01*
X75335715Y15899943D02*
X76097619Y15899943D01*
X76335715Y16518991D02*
X76669048Y16518991D01*
X76811905Y15995181D02*
X76335715Y15995181D01*
X76335715Y15995181D02*
X76335715Y16995181D01*
X76335715Y16995181D02*
X76811905Y16995181D01*
X77811905Y16090420D02*
X77764286Y16042800D01*
X77764286Y16042800D02*
X77621429Y15995181D01*
X77621429Y15995181D02*
X77526191Y15995181D01*
X77526191Y15995181D02*
X77383334Y16042800D01*
X77383334Y16042800D02*
X77288096Y16138039D01*
X77288096Y16138039D02*
X77240477Y16233277D01*
X77240477Y16233277D02*
X77192858Y16423753D01*
X77192858Y16423753D02*
X77192858Y16566610D01*
X77192858Y16566610D02*
X77240477Y16757086D01*
X77240477Y16757086D02*
X77288096Y16852324D01*
X77288096Y16852324D02*
X77383334Y16947562D01*
X77383334Y16947562D02*
X77526191Y16995181D01*
X77526191Y16995181D02*
X77621429Y16995181D01*
X77621429Y16995181D02*
X77764286Y16947562D01*
X77764286Y16947562D02*
X77811905Y16899943D01*
X78240477Y16995181D02*
X78240477Y16185658D01*
X78240477Y16185658D02*
X78288096Y16090420D01*
X78288096Y16090420D02*
X78335715Y16042800D01*
X78335715Y16042800D02*
X78430953Y15995181D01*
X78430953Y15995181D02*
X78621429Y15995181D01*
X78621429Y15995181D02*
X78716667Y16042800D01*
X78716667Y16042800D02*
X78764286Y16090420D01*
X78764286Y16090420D02*
X78811905Y16185658D01*
X78811905Y16185658D02*
X78811905Y16995181D01*
X79240477Y16042800D02*
X79335715Y15995181D01*
X79335715Y15995181D02*
X79526191Y15995181D01*
X79526191Y15995181D02*
X79621429Y16042800D01*
X79621429Y16042800D02*
X79669048Y16138039D01*
X79669048Y16138039D02*
X79669048Y16185658D01*
X79669048Y16185658D02*
X79621429Y16280896D01*
X79621429Y16280896D02*
X79526191Y16328515D01*
X79526191Y16328515D02*
X79383334Y16328515D01*
X79383334Y16328515D02*
X79288096Y16376134D01*
X79288096Y16376134D02*
X79240477Y16471372D01*
X79240477Y16471372D02*
X79240477Y16518991D01*
X79240477Y16518991D02*
X79288096Y16614229D01*
X79288096Y16614229D02*
X79383334Y16661848D01*
X79383334Y16661848D02*
X79526191Y16661848D01*
X79526191Y16661848D02*
X79621429Y16614229D01*
X79859525Y15899943D02*
X80621429Y15899943D01*
X81430953Y16090420D02*
X81383334Y16042800D01*
X81383334Y16042800D02*
X81240477Y15995181D01*
X81240477Y15995181D02*
X81145239Y15995181D01*
X81145239Y15995181D02*
X81002382Y16042800D01*
X81002382Y16042800D02*
X80907144Y16138039D01*
X80907144Y16138039D02*
X80859525Y16233277D01*
X80859525Y16233277D02*
X80811906Y16423753D01*
X80811906Y16423753D02*
X80811906Y16566610D01*
X80811906Y16566610D02*
X80859525Y16757086D01*
X80859525Y16757086D02*
X80907144Y16852324D01*
X80907144Y16852324D02*
X81002382Y16947562D01*
X81002382Y16947562D02*
X81145239Y16995181D01*
X81145239Y16995181D02*
X81240477Y16995181D01*
X81240477Y16995181D02*
X81383334Y16947562D01*
X81383334Y16947562D02*
X81430953Y16899943D01*
X82002382Y15995181D02*
X81907144Y16042800D01*
X81907144Y16042800D02*
X81859525Y16090420D01*
X81859525Y16090420D02*
X81811906Y16185658D01*
X81811906Y16185658D02*
X81811906Y16471372D01*
X81811906Y16471372D02*
X81859525Y16566610D01*
X81859525Y16566610D02*
X81907144Y16614229D01*
X81907144Y16614229D02*
X82002382Y16661848D01*
X82002382Y16661848D02*
X82145239Y16661848D01*
X82145239Y16661848D02*
X82240477Y16614229D01*
X82240477Y16614229D02*
X82288096Y16566610D01*
X82288096Y16566610D02*
X82335715Y16471372D01*
X82335715Y16471372D02*
X82335715Y16185658D01*
X82335715Y16185658D02*
X82288096Y16090420D01*
X82288096Y16090420D02*
X82240477Y16042800D01*
X82240477Y16042800D02*
X82145239Y15995181D01*
X82145239Y15995181D02*
X82002382Y15995181D01*
X82764287Y16661848D02*
X82764287Y15995181D01*
X82764287Y16566610D02*
X82811906Y16614229D01*
X82811906Y16614229D02*
X82907144Y16661848D01*
X82907144Y16661848D02*
X83050001Y16661848D01*
X83050001Y16661848D02*
X83145239Y16614229D01*
X83145239Y16614229D02*
X83192858Y16518991D01*
X83192858Y16518991D02*
X83192858Y15995181D01*
X83430954Y15899943D02*
X84192858Y15899943D01*
X84573811Y16566610D02*
X84478573Y16614229D01*
X84478573Y16614229D02*
X84430954Y16661848D01*
X84430954Y16661848D02*
X84383335Y16757086D01*
X84383335Y16757086D02*
X84383335Y16804705D01*
X84383335Y16804705D02*
X84430954Y16899943D01*
X84430954Y16899943D02*
X84478573Y16947562D01*
X84478573Y16947562D02*
X84573811Y16995181D01*
X84573811Y16995181D02*
X84764287Y16995181D01*
X84764287Y16995181D02*
X84859525Y16947562D01*
X84859525Y16947562D02*
X84907144Y16899943D01*
X84907144Y16899943D02*
X84954763Y16804705D01*
X84954763Y16804705D02*
X84954763Y16757086D01*
X84954763Y16757086D02*
X84907144Y16661848D01*
X84907144Y16661848D02*
X84859525Y16614229D01*
X84859525Y16614229D02*
X84764287Y16566610D01*
X84764287Y16566610D02*
X84573811Y16566610D01*
X84573811Y16566610D02*
X84478573Y16518991D01*
X84478573Y16518991D02*
X84430954Y16471372D01*
X84430954Y16471372D02*
X84383335Y16376134D01*
X84383335Y16376134D02*
X84383335Y16185658D01*
X84383335Y16185658D02*
X84430954Y16090420D01*
X84430954Y16090420D02*
X84478573Y16042800D01*
X84478573Y16042800D02*
X84573811Y15995181D01*
X84573811Y15995181D02*
X84764287Y15995181D01*
X84764287Y15995181D02*
X84859525Y16042800D01*
X84859525Y16042800D02*
X84907144Y16090420D01*
X84907144Y16090420D02*
X84954763Y16185658D01*
X84954763Y16185658D02*
X84954763Y16376134D01*
X84954763Y16376134D02*
X84907144Y16471372D01*
X84907144Y16471372D02*
X84859525Y16518991D01*
X84859525Y16518991D02*
X84764287Y16566610D01*
X85335716Y16899943D02*
X85383335Y16947562D01*
X85383335Y16947562D02*
X85478573Y16995181D01*
X85478573Y16995181D02*
X85716668Y16995181D01*
X85716668Y16995181D02*
X85811906Y16947562D01*
X85811906Y16947562D02*
X85859525Y16899943D01*
X85859525Y16899943D02*
X85907144Y16804705D01*
X85907144Y16804705D02*
X85907144Y16709467D01*
X85907144Y16709467D02*
X85859525Y16566610D01*
X85859525Y16566610D02*
X85288097Y15995181D01*
X85288097Y15995181D02*
X85907144Y15995181D01*
X86811906Y16995181D02*
X86335716Y16995181D01*
X86335716Y16995181D02*
X86288097Y16518991D01*
X86288097Y16518991D02*
X86335716Y16566610D01*
X86335716Y16566610D02*
X86430954Y16614229D01*
X86430954Y16614229D02*
X86669049Y16614229D01*
X86669049Y16614229D02*
X86764287Y16566610D01*
X86764287Y16566610D02*
X86811906Y16518991D01*
X86811906Y16518991D02*
X86859525Y16423753D01*
X86859525Y16423753D02*
X86859525Y16185658D01*
X86859525Y16185658D02*
X86811906Y16090420D01*
X86811906Y16090420D02*
X86764287Y16042800D01*
X86764287Y16042800D02*
X86669049Y15995181D01*
X86669049Y15995181D02*
X86430954Y15995181D01*
X86430954Y15995181D02*
X86335716Y16042800D01*
X86335716Y16042800D02*
X86288097Y16090420D01*
X87240478Y16899943D02*
X87288097Y16947562D01*
X87288097Y16947562D02*
X87383335Y16995181D01*
X87383335Y16995181D02*
X87621430Y16995181D01*
X87621430Y16995181D02*
X87716668Y16947562D01*
X87716668Y16947562D02*
X87764287Y16899943D01*
X87764287Y16899943D02*
X87811906Y16804705D01*
X87811906Y16804705D02*
X87811906Y16709467D01*
X87811906Y16709467D02*
X87764287Y16566610D01*
X87764287Y16566610D02*
X87192859Y15995181D01*
X87192859Y15995181D02*
X87811906Y15995181D01*
X88764287Y15995181D02*
X88192859Y15995181D01*
X88478573Y15995181D02*
X88478573Y16995181D01*
X88478573Y16995181D02*
X88383335Y16852324D01*
X88383335Y16852324D02*
X88288097Y16757086D01*
X88288097Y16757086D02*
X88192859Y16709467D01*
X89097621Y16995181D02*
X89716668Y16995181D01*
X89716668Y16995181D02*
X89383335Y16614229D01*
X89383335Y16614229D02*
X89526192Y16614229D01*
X89526192Y16614229D02*
X89621430Y16566610D01*
X89621430Y16566610D02*
X89669049Y16518991D01*
X89669049Y16518991D02*
X89716668Y16423753D01*
X89716668Y16423753D02*
X89716668Y16185658D01*
X89716668Y16185658D02*
X89669049Y16090420D01*
X89669049Y16090420D02*
X89621430Y16042800D01*
X89621430Y16042800D02*
X89526192Y15995181D01*
X89526192Y15995181D02*
X89240478Y15995181D01*
X89240478Y15995181D02*
X89145240Y16042800D01*
X89145240Y16042800D02*
X89097621Y16090420D01*
X90145240Y16376134D02*
X90907145Y16376134D01*
X91907144Y15995181D02*
X91335716Y15995181D01*
X91621430Y15995181D02*
X91621430Y16995181D01*
X91621430Y16995181D02*
X91526192Y16852324D01*
X91526192Y16852324D02*
X91430954Y16757086D01*
X91430954Y16757086D02*
X91335716Y16709467D01*
D11*
X22204761Y3084220D02*
X22204761Y2817553D01*
X22109523Y3236600D02*
X22014285Y2950886D01*
X22014285Y2950886D02*
X22261904Y2950886D01*
X22414285Y2855648D02*
X22433332Y2836600D01*
X22433332Y2836600D02*
X22414285Y2817553D01*
X22414285Y2817553D02*
X22395237Y2836600D01*
X22395237Y2836600D02*
X22414285Y2855648D01*
X22414285Y2855648D02*
X22414285Y2817553D01*
X22814284Y2817553D02*
X22585713Y2817553D01*
X22699999Y2817553D02*
X22699999Y3217553D01*
X22699999Y3217553D02*
X22661903Y3160410D01*
X22661903Y3160410D02*
X22623808Y3122315D01*
X22623808Y3122315D02*
X22585713Y3103267D01*
X22985713Y2817553D02*
X22985713Y3084220D01*
X22985713Y3046124D02*
X23004760Y3065172D01*
X23004760Y3065172D02*
X23042855Y3084220D01*
X23042855Y3084220D02*
X23099998Y3084220D01*
X23099998Y3084220D02*
X23138094Y3065172D01*
X23138094Y3065172D02*
X23157141Y3027077D01*
X23157141Y3027077D02*
X23157141Y2817553D01*
X23157141Y3027077D02*
X23176189Y3065172D01*
X23176189Y3065172D02*
X23214284Y3084220D01*
X23214284Y3084220D02*
X23271427Y3084220D01*
X23271427Y3084220D02*
X23309522Y3065172D01*
X23309522Y3065172D02*
X23328570Y3027077D01*
X23328570Y3027077D02*
X23328570Y2817553D01*
X23519046Y2817553D02*
X23519046Y3084220D01*
X23519046Y3046124D02*
X23538093Y3065172D01*
X23538093Y3065172D02*
X23576188Y3084220D01*
X23576188Y3084220D02*
X23633331Y3084220D01*
X23633331Y3084220D02*
X23671427Y3065172D01*
X23671427Y3065172D02*
X23690474Y3027077D01*
X23690474Y3027077D02*
X23690474Y2817553D01*
X23690474Y3027077D02*
X23709522Y3065172D01*
X23709522Y3065172D02*
X23747617Y3084220D01*
X23747617Y3084220D02*
X23804760Y3084220D01*
X23804760Y3084220D02*
X23842855Y3065172D01*
X23842855Y3065172D02*
X23861903Y3027077D01*
X23861903Y3027077D02*
X23861903Y2817553D01*
X24299998Y3217553D02*
X24528569Y3217553D01*
X24414283Y2817553D02*
X24414283Y3217553D01*
X24661903Y2817553D02*
X24661903Y3217553D01*
X24833331Y2817553D02*
X24833331Y3027077D01*
X24833331Y3027077D02*
X24814284Y3065172D01*
X24814284Y3065172D02*
X24776188Y3084220D01*
X24776188Y3084220D02*
X24719045Y3084220D01*
X24719045Y3084220D02*
X24680950Y3065172D01*
X24680950Y3065172D02*
X24661903Y3046124D01*
X25023808Y2817553D02*
X25023808Y3084220D01*
X25023808Y3008029D02*
X25042855Y3046124D01*
X25042855Y3046124D02*
X25061903Y3065172D01*
X25061903Y3065172D02*
X25099998Y3084220D01*
X25099998Y3084220D02*
X25138093Y3084220D01*
X25328569Y2817553D02*
X25290474Y2836600D01*
X25290474Y2836600D02*
X25271427Y2855648D01*
X25271427Y2855648D02*
X25252379Y2893743D01*
X25252379Y2893743D02*
X25252379Y3008029D01*
X25252379Y3008029D02*
X25271427Y3046124D01*
X25271427Y3046124D02*
X25290474Y3065172D01*
X25290474Y3065172D02*
X25328569Y3084220D01*
X25328569Y3084220D02*
X25385712Y3084220D01*
X25385712Y3084220D02*
X25423808Y3065172D01*
X25423808Y3065172D02*
X25442855Y3046124D01*
X25442855Y3046124D02*
X25461903Y3008029D01*
X25461903Y3008029D02*
X25461903Y2893743D01*
X25461903Y2893743D02*
X25442855Y2855648D01*
X25442855Y2855648D02*
X25423808Y2836600D01*
X25423808Y2836600D02*
X25385712Y2817553D01*
X25385712Y2817553D02*
X25328569Y2817553D01*
X25804760Y3084220D02*
X25804760Y2817553D01*
X25633332Y3084220D02*
X25633332Y2874696D01*
X25633332Y2874696D02*
X25652379Y2836600D01*
X25652379Y2836600D02*
X25690474Y2817553D01*
X25690474Y2817553D02*
X25747617Y2817553D01*
X25747617Y2817553D02*
X25785713Y2836600D01*
X25785713Y2836600D02*
X25804760Y2855648D01*
X26166665Y3084220D02*
X26166665Y2760410D01*
X26166665Y2760410D02*
X26147618Y2722315D01*
X26147618Y2722315D02*
X26128570Y2703267D01*
X26128570Y2703267D02*
X26090475Y2684220D01*
X26090475Y2684220D02*
X26033332Y2684220D01*
X26033332Y2684220D02*
X25995237Y2703267D01*
X26166665Y2836600D02*
X26128570Y2817553D01*
X26128570Y2817553D02*
X26052379Y2817553D01*
X26052379Y2817553D02*
X26014284Y2836600D01*
X26014284Y2836600D02*
X25995237Y2855648D01*
X25995237Y2855648D02*
X25976189Y2893743D01*
X25976189Y2893743D02*
X25976189Y3008029D01*
X25976189Y3008029D02*
X25995237Y3046124D01*
X25995237Y3046124D02*
X26014284Y3065172D01*
X26014284Y3065172D02*
X26052379Y3084220D01*
X26052379Y3084220D02*
X26128570Y3084220D01*
X26128570Y3084220D02*
X26166665Y3065172D01*
X26357142Y2817553D02*
X26357142Y3217553D01*
X26528570Y2817553D02*
X26528570Y3027077D01*
X26528570Y3027077D02*
X26509523Y3065172D01*
X26509523Y3065172D02*
X26471427Y3084220D01*
X26471427Y3084220D02*
X26414284Y3084220D01*
X26414284Y3084220D02*
X26376189Y3065172D01*
X26376189Y3065172D02*
X26357142Y3046124D01*
X27023809Y2817553D02*
X27023809Y3217553D01*
X27023809Y3027077D02*
X27252380Y3027077D01*
X27252380Y2817553D02*
X27252380Y3217553D01*
X27499999Y2817553D02*
X27461904Y2836600D01*
X27461904Y2836600D02*
X27442857Y2855648D01*
X27442857Y2855648D02*
X27423809Y2893743D01*
X27423809Y2893743D02*
X27423809Y3008029D01*
X27423809Y3008029D02*
X27442857Y3046124D01*
X27442857Y3046124D02*
X27461904Y3065172D01*
X27461904Y3065172D02*
X27499999Y3084220D01*
X27499999Y3084220D02*
X27557142Y3084220D01*
X27557142Y3084220D02*
X27595238Y3065172D01*
X27595238Y3065172D02*
X27614285Y3046124D01*
X27614285Y3046124D02*
X27633333Y3008029D01*
X27633333Y3008029D02*
X27633333Y2893743D01*
X27633333Y2893743D02*
X27614285Y2855648D01*
X27614285Y2855648D02*
X27595238Y2836600D01*
X27595238Y2836600D02*
X27557142Y2817553D01*
X27557142Y2817553D02*
X27499999Y2817553D01*
X27861904Y2817553D02*
X27823809Y2836600D01*
X27823809Y2836600D02*
X27804762Y2874696D01*
X27804762Y2874696D02*
X27804762Y3217553D01*
X28166667Y2836600D02*
X28128571Y2817553D01*
X28128571Y2817553D02*
X28052381Y2817553D01*
X28052381Y2817553D02*
X28014286Y2836600D01*
X28014286Y2836600D02*
X27995238Y2874696D01*
X27995238Y2874696D02*
X27995238Y3027077D01*
X27995238Y3027077D02*
X28014286Y3065172D01*
X28014286Y3065172D02*
X28052381Y3084220D01*
X28052381Y3084220D02*
X28128571Y3084220D01*
X28128571Y3084220D02*
X28166667Y3065172D01*
X28166667Y3065172D02*
X28185714Y3027077D01*
X28185714Y3027077D02*
X28185714Y2988981D01*
X28185714Y2988981D02*
X27995238Y2950886D01*
X128004761Y3084220D02*
X128004761Y2817553D01*
X127909523Y3236600D02*
X127814285Y2950886D01*
X127814285Y2950886D02*
X128061904Y2950886D01*
X128214285Y2855648D02*
X128233332Y2836600D01*
X128233332Y2836600D02*
X128214285Y2817553D01*
X128214285Y2817553D02*
X128195237Y2836600D01*
X128195237Y2836600D02*
X128214285Y2855648D01*
X128214285Y2855648D02*
X128214285Y2817553D01*
X128614284Y2817553D02*
X128385713Y2817553D01*
X128499999Y2817553D02*
X128499999Y3217553D01*
X128499999Y3217553D02*
X128461903Y3160410D01*
X128461903Y3160410D02*
X128423808Y3122315D01*
X128423808Y3122315D02*
X128385713Y3103267D01*
X128785713Y2817553D02*
X128785713Y3084220D01*
X128785713Y3046124D02*
X128804760Y3065172D01*
X128804760Y3065172D02*
X128842855Y3084220D01*
X128842855Y3084220D02*
X128899998Y3084220D01*
X128899998Y3084220D02*
X128938094Y3065172D01*
X128938094Y3065172D02*
X128957141Y3027077D01*
X128957141Y3027077D02*
X128957141Y2817553D01*
X128957141Y3027077D02*
X128976189Y3065172D01*
X128976189Y3065172D02*
X129014284Y3084220D01*
X129014284Y3084220D02*
X129071427Y3084220D01*
X129071427Y3084220D02*
X129109522Y3065172D01*
X129109522Y3065172D02*
X129128570Y3027077D01*
X129128570Y3027077D02*
X129128570Y2817553D01*
X129319046Y2817553D02*
X129319046Y3084220D01*
X129319046Y3046124D02*
X129338093Y3065172D01*
X129338093Y3065172D02*
X129376188Y3084220D01*
X129376188Y3084220D02*
X129433331Y3084220D01*
X129433331Y3084220D02*
X129471427Y3065172D01*
X129471427Y3065172D02*
X129490474Y3027077D01*
X129490474Y3027077D02*
X129490474Y2817553D01*
X129490474Y3027077D02*
X129509522Y3065172D01*
X129509522Y3065172D02*
X129547617Y3084220D01*
X129547617Y3084220D02*
X129604760Y3084220D01*
X129604760Y3084220D02*
X129642855Y3065172D01*
X129642855Y3065172D02*
X129661903Y3027077D01*
X129661903Y3027077D02*
X129661903Y2817553D01*
X130099998Y3217553D02*
X130328569Y3217553D01*
X130214283Y2817553D02*
X130214283Y3217553D01*
X130461903Y2817553D02*
X130461903Y3217553D01*
X130633331Y2817553D02*
X130633331Y3027077D01*
X130633331Y3027077D02*
X130614284Y3065172D01*
X130614284Y3065172D02*
X130576188Y3084220D01*
X130576188Y3084220D02*
X130519045Y3084220D01*
X130519045Y3084220D02*
X130480950Y3065172D01*
X130480950Y3065172D02*
X130461903Y3046124D01*
X130823808Y2817553D02*
X130823808Y3084220D01*
X130823808Y3008029D02*
X130842855Y3046124D01*
X130842855Y3046124D02*
X130861903Y3065172D01*
X130861903Y3065172D02*
X130899998Y3084220D01*
X130899998Y3084220D02*
X130938093Y3084220D01*
X131128569Y2817553D02*
X131090474Y2836600D01*
X131090474Y2836600D02*
X131071427Y2855648D01*
X131071427Y2855648D02*
X131052379Y2893743D01*
X131052379Y2893743D02*
X131052379Y3008029D01*
X131052379Y3008029D02*
X131071427Y3046124D01*
X131071427Y3046124D02*
X131090474Y3065172D01*
X131090474Y3065172D02*
X131128569Y3084220D01*
X131128569Y3084220D02*
X131185712Y3084220D01*
X131185712Y3084220D02*
X131223808Y3065172D01*
X131223808Y3065172D02*
X131242855Y3046124D01*
X131242855Y3046124D02*
X131261903Y3008029D01*
X131261903Y3008029D02*
X131261903Y2893743D01*
X131261903Y2893743D02*
X131242855Y2855648D01*
X131242855Y2855648D02*
X131223808Y2836600D01*
X131223808Y2836600D02*
X131185712Y2817553D01*
X131185712Y2817553D02*
X131128569Y2817553D01*
X131604760Y3084220D02*
X131604760Y2817553D01*
X131433332Y3084220D02*
X131433332Y2874696D01*
X131433332Y2874696D02*
X131452379Y2836600D01*
X131452379Y2836600D02*
X131490474Y2817553D01*
X131490474Y2817553D02*
X131547617Y2817553D01*
X131547617Y2817553D02*
X131585713Y2836600D01*
X131585713Y2836600D02*
X131604760Y2855648D01*
X131966665Y3084220D02*
X131966665Y2760410D01*
X131966665Y2760410D02*
X131947618Y2722315D01*
X131947618Y2722315D02*
X131928570Y2703267D01*
X131928570Y2703267D02*
X131890475Y2684220D01*
X131890475Y2684220D02*
X131833332Y2684220D01*
X131833332Y2684220D02*
X131795237Y2703267D01*
X131966665Y2836600D02*
X131928570Y2817553D01*
X131928570Y2817553D02*
X131852379Y2817553D01*
X131852379Y2817553D02*
X131814284Y2836600D01*
X131814284Y2836600D02*
X131795237Y2855648D01*
X131795237Y2855648D02*
X131776189Y2893743D01*
X131776189Y2893743D02*
X131776189Y3008029D01*
X131776189Y3008029D02*
X131795237Y3046124D01*
X131795237Y3046124D02*
X131814284Y3065172D01*
X131814284Y3065172D02*
X131852379Y3084220D01*
X131852379Y3084220D02*
X131928570Y3084220D01*
X131928570Y3084220D02*
X131966665Y3065172D01*
X132157142Y2817553D02*
X132157142Y3217553D01*
X132328570Y2817553D02*
X132328570Y3027077D01*
X132328570Y3027077D02*
X132309523Y3065172D01*
X132309523Y3065172D02*
X132271427Y3084220D01*
X132271427Y3084220D02*
X132214284Y3084220D01*
X132214284Y3084220D02*
X132176189Y3065172D01*
X132176189Y3065172D02*
X132157142Y3046124D01*
X132823809Y2817553D02*
X132823809Y3217553D01*
X132823809Y3027077D02*
X133052380Y3027077D01*
X133052380Y2817553D02*
X133052380Y3217553D01*
X133299999Y2817553D02*
X133261904Y2836600D01*
X133261904Y2836600D02*
X133242857Y2855648D01*
X133242857Y2855648D02*
X133223809Y2893743D01*
X133223809Y2893743D02*
X133223809Y3008029D01*
X133223809Y3008029D02*
X133242857Y3046124D01*
X133242857Y3046124D02*
X133261904Y3065172D01*
X133261904Y3065172D02*
X133299999Y3084220D01*
X133299999Y3084220D02*
X133357142Y3084220D01*
X133357142Y3084220D02*
X133395238Y3065172D01*
X133395238Y3065172D02*
X133414285Y3046124D01*
X133414285Y3046124D02*
X133433333Y3008029D01*
X133433333Y3008029D02*
X133433333Y2893743D01*
X133433333Y2893743D02*
X133414285Y2855648D01*
X133414285Y2855648D02*
X133395238Y2836600D01*
X133395238Y2836600D02*
X133357142Y2817553D01*
X133357142Y2817553D02*
X133299999Y2817553D01*
X133661904Y2817553D02*
X133623809Y2836600D01*
X133623809Y2836600D02*
X133604762Y2874696D01*
X133604762Y2874696D02*
X133604762Y3217553D01*
X133966667Y2836600D02*
X133928571Y2817553D01*
X133928571Y2817553D02*
X133852381Y2817553D01*
X133852381Y2817553D02*
X133814286Y2836600D01*
X133814286Y2836600D02*
X133795238Y2874696D01*
X133795238Y2874696D02*
X133795238Y3027077D01*
X133795238Y3027077D02*
X133814286Y3065172D01*
X133814286Y3065172D02*
X133852381Y3084220D01*
X133852381Y3084220D02*
X133928571Y3084220D01*
X133928571Y3084220D02*
X133966667Y3065172D01*
X133966667Y3065172D02*
X133985714Y3027077D01*
X133985714Y3027077D02*
X133985714Y2988981D01*
X133985714Y2988981D02*
X133795238Y2950886D01*
D12*
G04 #@! TO.C,J1*
X135000000Y11700000D02*
X135000000Y100000D01*
X135000000Y11700000D02*
X124000000Y11700000D01*
X126550000Y7000000D02*
X126550000Y100000D01*
X126550000Y7000000D02*
X78000000Y7000000D01*
X124000000Y7000000D02*
X124000000Y11700000D01*
X32000000Y7000000D02*
X32000000Y11700000D01*
X29450000Y7000000D02*
X78000000Y7000000D01*
X29450000Y7000000D02*
X29450000Y100000D01*
X21000000Y100000D02*
X135000000Y100000D01*
X21000000Y11700000D02*
X32000000Y11700000D01*
X21000000Y11700000D02*
X21000000Y100000D01*
X133050000Y6900000D02*
G75*
G03*
X128950000Y6900000I-2050000J0D01*
G01*
X128950000Y6900000D02*
G75*
G03*
X133050000Y6900000I2050000J0D01*
G01*
X27050000Y6900000D02*
G75*
G03*
X22950000Y6900000I-2050000J0D01*
G01*
X22950000Y6900000D02*
G75*
G03*
X27050000Y6900000I2050000J0D01*
G01*
D13*
G04 #@! TO.C,M2*
X59249990Y69024985D02*
X93050000Y69024985D01*
X59249990Y33224995D02*
X59249990Y69024985D01*
X59249990Y33224995D02*
X93049990Y33224995D01*
X93050000Y33224995D02*
X93050000Y69024985D01*
G04 #@! TD*
M02*
