M48
; DRILL file {KiCad 7.0.11-7.0.11~ubuntu22.04.1} date Tue Mar  5 20:24:44 2024
; FORMAT={2:4/ absolute / inch / suppress leading zeros}
; #@! TF.CreationDate,2024-03-05T20:24:44+00:00
; #@! TF.GenerationSoftware,Kicad,Pcbnew,7.0.11-7.0.11~ubuntu22.04.1
; #@! TF.FileFunction,MixedPlating,1,2
FMAT,2
INCH,TZ
; #@! TA.AperFunction,Plated,PTH,ComponentDrill
T1C0.0118
; #@! TA.AperFunction,Plated,PTH,ComponentDrill
T2C0.0197
; #@! TA.AperFunction,Plated,PTH,ComponentDrill
T3C0.0669
; #@! TA.AperFunction,Plated,PTH,ComponentDrill
T4C0.1457
; #@! TA.AperFunction,NonPlated,NPTH,ComponentDrill
T5C0.1457
; #@! TA.AperFunction,NonPlated,NPTH,ComponentDrill
T6C0.1476
; #@! TA.AperFunction,NonPlated,NPTH,ComponentDrill
T7C0.1772
%
G90
G05
T1
X40010Y28947
X40010Y27096
X40010Y26545
X40010Y24695
X40010Y24380
X40010Y23356
X40010Y22963
X40010Y22569
X40010Y22175
X40010Y21781
X40010Y21388
X40010Y20994
X40010Y20600
X40010Y16388
X40010Y15994
X40167Y15010
X41112Y15010
X41585Y15010
X42057Y15010
X42530Y15010
X42923Y28947
X43002Y15010
X43317Y28947
X43474Y15010
X43947Y15010
X44380Y28947
X44419Y15010
X44892Y15010
X45364Y15010
X45837Y15010
X46073Y28947
X46309Y15010
X46388Y28947
X46703Y28947
X46781Y15010
X47018Y28947
X47254Y15010
X47333Y28947
X47648Y28947
X47726Y15010
X47963Y28947
X48199Y15010
X48278Y28947
X48593Y28947
X48671Y15010
X49144Y15010
X49537Y28947
X49616Y15010
X49852Y28947
X50089Y15010
X50167Y28947
X50482Y28947
X50561Y15010
X50797Y28947
X51112Y28947
X51427Y28947
X51742Y28947
X52057Y28947
X52372Y28947
X52687Y28947
X53002Y28947
X53159Y23671
X53159Y17569
X53159Y26112
X53159Y25797
X53159Y25482
X53159Y25167
X53159Y24852
X53159Y24537
X53159Y23986
X53159Y23356
X53159Y23041
X53159Y22726
X53159Y22411
X53159Y22096
X53159Y21781
X53159Y21467
X53159Y21152
X53159Y20837
X53159Y20522
X53159Y20207
X53159Y19892
X53159Y19577
X53159Y19262
T2
X5118Y2362
X5438Y3135
X5438Y1590
X6211Y3455
X6211Y1270
X6983Y3135
X6983Y1590
X7303Y2362
X53937Y2362
X54257Y3135
X54257Y1590
X55030Y3455
X55030Y1270
X55802Y3135
X55802Y1590
X56122Y2362
T3
X13976Y2559
X14961Y4528
X15945Y2559
X16929Y4528
X17913Y2559
X18898Y4528
X19882Y2559
X20866Y4528
X21850Y2559
X22835Y4528
X23819Y2559
X24803Y4528
X25787Y2559
X26772Y4528
X27756Y2559
X28740Y4528
X29724Y2559
X30709Y4528
X31693Y2559
X32677Y4528
X33661Y2559
X34646Y4528
X35630Y2559
X36614Y4528
X37598Y2559
X38583Y4528
X39567Y2559
X40551Y4528
X41535Y2559
X42520Y4528
X43504Y2559
X44488Y4528
X45472Y2559
X46457Y4528
X47441Y2559
T4
X6201Y2362
X55030Y2362
T5
X33071Y29134
T6
X2244Y29104
X2244Y2333
X9843Y4528
X51575Y4528
T7
X10433Y1732
X50984Y1732
M30
